# xmcd
#
# Track frame offsets:
#	150
#	13465
#	27977
#	47274
#	61449
#	74318
#	90085
#	102341
#	116337
#	131234
#	145120
#	159424
#	176263
#	188022
#	201883
#
# Disc length: 2895 seconds
#
# Revision: 0
# Processed by: cddbd v1.5.2PL0 Copyright (c) Steve Scherf et al.
# Submitted via: EasyCDDAExtractor 16.0.8.2
#
DISCID=c40b4d0f
DTITLE=Συλλογικός δίσκος - Ιστορία ρεμπέτικου τραγουδιού 3
DYEAR=2011
DGENRE=Ρεμπέτικη
TTITLE0=Γενίτσαρης Μιχάλης - Εγώ μάγκας φαινόμουνα [Μιχάλη Γενίτσαρη]
TTITLE1=Νίνου Μαρίκα - Το βουνό [Ε. Πρέκα-Λ. Νταράλα]
TTITLE2=Πάνου Πόλυ - Όλοι οι ρεμπέτες του ντουνιά [Μάρκου Βαμβακάρη]
TTITLE3=Λίντα Μαίρη - Δώδεκα η ώρα θά 'ρθω βρε Μαριώ [Βασίλη Τσιτσάνη]
TTITLE4=Κόκοτας Σταμάτης - Όταν πίνεις στην ταβέρνα [Βασίλη Τσιτσάνη]
TTITLE5=Δούκισσα - Καρδιά παραπονιάρα [Α. Χατζηχρήστου-Γ. Λελάκη]
TTITLE6=Μενιδιάτης Μιχάλης - Το Χαρικλάκι [Π. Τούντα, διασκ. Ν. Λαβράνου]
TTITLE7=Εσκενάζυ Ρόζα - Τα κεριά τα σπαρματσέτα [Ρ. Εσκενάζυ-Μ. Μανισαλή]
TTITLE8=Νικολαΐδης Απόστολος - Ο καψούρης [Γ. Παπαϊωάννου]
TTITLE9=Δούκισσα - Τη ζούλα μου ανακάλυψαν [Π. Σκουρτέλη]
TTITLE10=Πάνου Πόλυ - Απ' τις παρανομίες μου [Γ. Παπαϊωάννου]
TTITLE11=Λίντα Μαίρη - Απελπίστηκα [Μάρκο Βαμβακάρη]
TTITLE12=Μαργαρίτης Γιώργος - Τα σωφεράκια [Μ. Μπακάλη]
TTITLE13=Διαμάντη Λίτσα - Βαδίζω και παραμιλώ [Γ. Παπαϊωάννου]
TTITLE14=Παπαδάτος Νίκος - Της καναβουριάς τα φύλλα [Μ. Δασκαλάκη]
EXTD=
EXTT0=
EXTT1=
EXTT2=
EXTT3=
EXTT4=
EXTT5=
EXTT6=
EXTT7=
EXTT8=
EXTT9=
EXTT10=
EXTT11=
EXTT12=
EXTT13=
EXTT14=
PLAYORDER=
